<?xml version="1.0" encoding="UTF-8"?>
<svg version="1.1" xmlns="http://www.w3.org/2000/svg" width="200" height="75">
<path d="M0 0 C4.49380749 1.21893512 6.85400931 4.21570442 9.61328125 7.8046875 C11.49581099 10.13098975 13.50553301 11.44965237 16.1875 12.75 C16.70699219 12.26789062 17.22648437 11.78578125 17.76171875 11.2890625 C22.65950669 6.8529884 25.95815176 3.9199657 32.75 3.5625 C35.47152166 3.71094664 37.59779015 4.04165485 40.1875 4.75 C40.07011737 12.54633966 39.94528239 20.34253407 39.81518555 28.13867188 C39.77178752 30.79261548 39.73011612 33.4465879 39.69018555 36.10058594 C39.63260075 39.90829158 39.5688725 43.71585155 39.50390625 47.5234375 C39.48719376 48.71617279 39.47048126 49.90890808 39.45326233 51.13778687 C39.43331711 52.23877716 39.41337189 53.33976746 39.39282227 54.47412109 C39.37727798 55.44674896 39.3617337 56.41937683 39.34571838 57.42147827 C39.1875 59.75 39.1875 59.75 38.1875 61.75 C36.26171875 62.05859375 36.26171875 62.05859375 33.875 62.1875 C29.91868391 62.53530801 28.31639983 63.30554701 25.1875 65.75 C22.874043 66.35968361 20.56742076 66.81164173 18.2109375 67.22265625 C15.97776261 67.62245547 15.97776261 67.62245547 14.1875 69.75 C8.77266212 70.76998842 2.32467175 71.66687385 -2.59375 68.66162109 C-6.118499 65.74892314 -9.00576966 62.3444821 -11.8125 58.75 C-12.410625 59.05421875 -13.00875 59.3584375 -13.625 59.671875 C-16.33759817 61.00879838 -18.87328863 62.01519716 -21.8125 62.75 C-23.1325 62.09 -24.4525 61.43 -25.8125 60.75 C-25.8125 56.13 -25.8125 51.51 -25.8125 46.75 C-28.1225 46.75 -30.4325 46.75 -32.8125 46.75 C-33.16175696 42.69473862 -33.3526509 38.79310968 -32.8125 34.75 C-31.843125 33.945625 -30.87375 33.14125 -29.875 32.3125 C-26.52494513 30.06758824 -26.52494513 30.06758824 -26.26171875 26.640625 C-26.13142047 24.30036567 -26.04747552 21.95694866 -26.015625 19.61328125 C-25.8125 16.75 -25.8125 16.75 -23.8125 14.75 C-22.19988281 14.38455078 -22.19988281 14.38455078 -20.5546875 14.01171875 C-15.88764914 12.43817659 -14.05909809 10.20182399 -10.9375 6.5625 C-4.63620701 -0.1981285 -4.63620701 -0.1981285 0 0 Z " fill="#270E0F" transform="translate(32.8125,3.25)"/>
<path d="M0 0 C1.18239258 0.07831055 1.18239258 0.07831055 2.38867188 0.15820312 C4.32201529 0.28709269 6.25482164 0.42399494 8.1875 0.5625 C7.8575 2.2125 7.5275 3.8625 7.1875 5.5625 C11.47915262 5.59141949 15.77078036 5.60927118 20.0625 5.625 C21.28582031 5.63337891 22.50914063 5.64175781 23.76953125 5.65039062 C24.93613281 5.65361328 26.10273437 5.65683594 27.3046875 5.66015625 C28.38347168 5.66539307 29.46225586 5.67062988 30.57373047 5.67602539 C33.16982186 5.74133106 33.16982186 5.74133106 35.1875 4.5625 C37.8598621 4.42834528 40.51000488 4.51931459 43.1875 4.5625 C43.5175 3.2425 43.8475 1.9225 44.1875 0.5625 C46.8953532 0.31221958 49.60158936 0.08678989 52.3125 -0.125 C53.45332031 -0.23424805 53.45332031 -0.23424805 54.6171875 -0.34570312 C59.61547883 -0.71195723 62.88944973 -0.36311988 67.1875 2.5625 C67.6825 4.0475 67.6825 4.0475 68.1875 5.5625 C70.105625 5.5315625 70.105625 5.5315625 72.0625 5.5 C75.9375 5.4375 75.9375 5.4375 78.1875 6.5625 C80.9436237 6.79873917 83.69841809 6.94446076 86.4609375 7.0859375 C89.6311624 7.64004558 91.0325943 8.16146288 93.1875 10.5625 C93.68359375 13.59375 93.68359375 13.59375 93.625 17.0625 C93.62371094 18.2071875 93.62242187 19.351875 93.62109375 20.53125 C93.1875 23.5625 93.1875 23.5625 91.84765625 25.40625 C88.02777517 28.06668483 83.6699716 28.08574571 79.1875 27.5625 C76.1875 26.0625 76.1875 26.0625 74.1875 24.5625 C73.1975 26.0475 73.1975 26.0475 72.1875 27.5625 C69.62109375 27.890625 69.62109375 27.890625 66.625 27.8125 C65.63371094 27.79703125 64.64242187 27.7815625 63.62109375 27.765625 C61.1875 27.5625 61.1875 27.5625 60.1875 26.5625 C60.14657063 24.22952567 60.14508277 21.89544775 60.1875 19.5625 C59.1975 19.5625 58.2075 19.5625 57.1875 19.5625 C57.1875 21.5425 57.1875 23.5225 57.1875 25.5625 C52.02195175 27.33712641 48.61412908 27.67580523 43.125 26.75 C35.80936735 25.61834026 28.58249314 24.99548881 21.1875 24.5625 C21.084375 25.325625 20.98125 26.08875 20.875 26.875 C20.12611227 29.80247022 19.60757697 30.81098311 17.1875 32.5625 C13.14753751 33.68975545 9.30543366 33.84792987 5.25 32.8125 C3.1875 31.5625 3.1875 31.5625 1.1875 28.5625 C-1.53340224 28.0892359 -1.53340224 28.0892359 -4.625 28.0625 C-9.24108737 27.92487752 -12.10261881 27.41127439 -15.8125 24.5625 C-18.63606057 20.94320872 -18.18008868 16.39120877 -18.1875 12 C-18.22423828 10.84854492 -18.22423828 10.84854492 -18.26171875 9.67382812 C-18.29081395 4.11179661 -18.29081395 4.11179661 -16.1015625 1.59765625 C-10.70366498 -0.84337249 -5.77357682 -0.42104039 0 0 Z " fill="#290E0E" transform="translate(94.8125,28.4375)"/>
<path d="M0 0 C1.58246707 -0.08153933 3.16616273 -0.13943557 4.75 -0.1875 C6.07257813 -0.23970703 6.07257813 -0.23970703 7.421875 -0.29296875 C10.60094077 0.06828872 11.8590244 0.61293525 14 3 C14.49609375 6.03125 14.49609375 6.03125 14.4375 9.5 C14.43621094 10.6446875 14.43492187 11.789375 14.43359375 12.96875 C14 16 14 16 12.66015625 17.84375 C8.84027517 20.50418483 4.4824716 20.52324571 0 20 C-3 18.5 -3 18.5 -5 17 C-5.66 17.99 -6.32 18.98 -7 20 C-9.56640625 20.328125 -9.56640625 20.328125 -12.5625 20.25 C-13.55378906 20.23453125 -14.54507813 20.2190625 -15.56640625 20.203125 C-18 20 -18 20 -19 19 C-19.04092937 16.66702567 -19.04241723 14.33294775 -19 12 C-19.99 12 -20.98 12 -22 12 C-24.10865385 8.52692308 -24.10865385 8.52692308 -23.55859375 5.859375 C-23.37425781 5.24578125 -23.18992188 4.6321875 -23 4 C-21.58461283 3.66127487 -20.16762037 3.32925376 -18.75 3 C-17.56664062 2.7215625 -17.56664062 2.7215625 -16.359375 2.4375 C-14 2 -14 2 -10 2 C-10 5.63 -10 9.26 -10 13 C-8.68 13 -7.36 13 -6 13 C-6.33 12.34 -6.66 11.68 -7 11 C-7.04022391 8.6670134 -7.04320247 6.33293334 -7 4 C-6.01 3.67 -5.02 3.34 -4 3 C-4 3.99 -4 4.98 -4 6 C-2.68 6 -1.36 6 0 6 C0 4.02 0 2.04 0 0 Z " fill="#2A0F0F" transform="translate(174,36)"/>
<path d="M0 0 C1.6484375 1.57421875 1.6484375 1.57421875 3.375 3.6875 C6.11997101 6.96864369 8.93034295 10.02336286 12 13 C10.71480435 15.86697492 9.42870746 17.97607712 7 20 C6.34 20 5.68 20 5 20 C4.731875 20.598125 4.46375 21.19625 4.1875 21.8125 C3.01506533 23.97224808 1.80630718 25.35790256 0 27 C-4.42761914 25.60846256 -6.9556255 23.47928514 -10 20 C-10 19.34 -10 18.68 -10 18 C-11.32 17.34 -12.64 16.68 -14 16 C-14 12 -14 12 -11.875 9.6875 C-10.92625 8.800625 -9.9775 7.91375 -9 7 C-7.44903441 5.13884129 -5.93021227 3.25748529 -4.4296875 1.35546875 C-3 0 -3 0 0 0 Z " fill="#929599" transform="translate(37,5)"/>
<path d="M0 0 C0 13.2 0 26.4 0 40 C-7.875 33.25 -7.875 33.25 -10.74609375 30.3515625 C-11.35517578 29.73925781 -11.96425781 29.12695312 -12.59179688 28.49609375 C-13.20087891 27.87863281 -13.80996094 27.26117188 -14.4375 26.625 C-15.39172852 25.66400391 -15.39172852 25.66400391 -16.36523438 24.68359375 C-17.91250332 23.12469121 -19.45736492 21.56348584 -21 20 C-20.06280291 18.88167191 -19.12198826 17.76637489 -18.1796875 16.65234375 C-17.65616699 16.03093506 -17.13264648 15.40952637 -16.59326172 14.76928711 C-14.59954754 12.55530509 -12.39658203 10.76219267 -10 9 C-9.96132813 10.13888672 -9.96132813 10.13888672 -9.921875 11.30078125 C-9.86515625 12.29464844 -9.8084375 13.28851563 -9.75 14.3125 C-9.70359375 15.29863281 -9.6571875 16.28476562 -9.609375 17.30078125 C-9.24029762 20.13940092 -9.24029762 20.13940092 -6.953125 21.85546875 C-6.30859375 22.23316406 -5.6640625 22.61085938 -5 23 C-5.01571045 22.40985107 -5.0314209 21.81970215 -5.04760742 21.21166992 C-5.10997939 18.53704414 -5.14899657 15.86257136 -5.1875 13.1875 C-5.21263672 12.25873047 -5.23777344 11.32996094 -5.26367188 10.37304688 C-5.27817383 9.0340332 -5.27817383 9.0340332 -5.29296875 7.66796875 C-5.3086792 6.84578857 -5.32438965 6.0236084 -5.34057617 5.17651367 C-4.83270132 1.93084751 -3.39749724 0 0 0 Z " fill="#707376" transform="translate(71,18)"/>
<path d="M0 0 C4.95 0 9.9 0 15 0 C15.66 1.32 16.32 2.64 17 4 C19.97851562 3.90234375 19.97851562 3.90234375 22.95703125 3.8046875 C25 4 25 4 28 6 C28.1875 9.125 28.1875 9.125 28 12 C26.68 12 25.36 12 24 12 C24 11.01 24 10.02 24 9 C23.01 9.495 23.01 9.495 22 10 C22 12.97 22 15.94 22 19 C20.68 19 19.36 19 18 19 C17.67 15.37 17.34 11.74 17 8 C15.35 8.66 13.7 9.32 12 10 C9.67402489 10.3813074 7.34087842 10.72460254 5 11 C5.33 13.31 5.66 15.62 6 18 C4.35 18.33 2.7 18.66 1 19 C1.01160156 17.79601562 1.02320313 16.59203125 1.03515625 15.3515625 C1.04453434 13.77604321 1.05363452 12.20052225 1.0625 10.625 C1.07087891 9.8309375 1.07925781 9.036875 1.08789062 8.21875 C1.23040151 3.97607778 1.23040151 3.97607778 0 0 Z " fill="#DAD9D9" transform="translate(146,30)"/>
<path d="M0 0 C3.24961674 1.52509089 5.47490567 4.01412944 7.9140625 6.578125 C8.42066406 7.09826172 8.92726563 7.61839844 9.44921875 8.15429688 C10.69440655 9.43472584 11.93017752 10.72430054 13.1640625 12.015625 C9.36391476 16.570412 5.50740704 20.96841759 1.1640625 25.015625 C0.5040625 25.015625 -0.1559375 25.015625 -0.8359375 25.015625 C-0.8359375 20.065625 -0.8359375 15.115625 -0.8359375 10.015625 C-3.8059375 10.015625 -6.7759375 10.015625 -9.8359375 10.015625 C-8.26980055 6.88335109 -7.27787176 5.12210041 -4.9609375 2.703125 C-4.22230469 1.90455078 -4.22230469 1.90455078 -3.46875 1.08984375 C-1.8359375 0.015625 -1.8359375 0.015625 0 0 Z " fill="#406F8E" transform="translate(15.8359375,32.984375)"/>
<path d="M0 0 C0.12375 0.78375 0.2475 1.5675 0.375 2.375 C0.79117993 5.14057822 0.79117993 5.14057822 3 7 C2.01 7.66 1.02 8.32 0 9 C-1.11694579 11.55241223 -1.96364239 14.14137984 -2.83984375 16.78515625 C-4 19 -4 19 -5.92578125 19.9140625 C-9.47012149 20.06090899 -11.38276553 18.20085626 -14 16 C-14 12 -14 12 -11.875 9.6875 C-10.92625 8.800625 -9.9775 7.91375 -9 7 C-7.44903441 5.13884129 -5.93021227 3.25748529 -4.4296875 1.35546875 C-3 0 -3 0 0 0 Z M-2 6 C-1.67 6.66 -1.34 7.32 -1 8 C-0.67 7.34 -0.34 6.68 0 6 C-0.66 6 -1.32 6 -2 6 Z " fill="#CBCBCE" transform="translate(37,5)"/>
<path d="M0 0 C-5.94 0.495 -5.94 0.495 -12 1 C-11.67 1.33 -11.34 1.66 -11 2 C-10.95907063 4.33297433 -10.95758277 6.66705225 -11 9 C-12.65 9.33 -14.3 9.66 -16 10 C-16.33 8.68 -16.66 7.36 -17 6 C-18.32 6.33 -19.64 6.66 -21 7 C-21 9.31 -21 11.62 -21 14 C-19.68 14.33 -18.36 14.66 -17 15 C-16.67 14.01 -16.34 13.02 -16 12 C-15.34 12 -14.68 12 -14 12 C-15.875 15.875 -15.875 15.875 -17 17 C-19.3125 17.375 -19.3125 17.375 -22 17 C-24.375 14.8125 -24.375 14.8125 -26 12 C-25.83083157 8.44746291 -25.00047767 7.0007165 -23 4 C-22.34 4 -21.68 4 -21 4 C-20.67 2.35 -20.34 0.7 -20 -1 C-4.1746988 -2.78313253 -4.1746988 -2.78313253 0 0 Z " fill="#311919" transform="translate(159,30)"/>
<path d="M0 0 C4.13639336 1.59092052 7.23213248 4.60474918 10 8 C10 8.66 10 9.32 10 10 C11.32 10.66 12.64 11.32 14 12 C14 12.66 14 13.32 14 14 C14.99 14.33 15.98 14.66 17 15 C16.25 16.9375 16.25 16.9375 15 19 C13.12402344 19.78955078 13.12402344 19.78955078 11 20 C9.35253906 18.99951172 9.35253906 18.99951172 7.765625 17.4296875 C7.19199219 16.8625 6.61835937 16.2953125 6.02734375 15.7109375 C5.44082031 15.10507812 4.85429688 14.49921875 4.25 13.875 C3.64800781 13.29234375 3.04601563 12.7096875 2.42578125 12.109375 C-1.8569542 7.77808246 -1.8569542 7.77808246 -2.515625 4.1953125 C-2 2 -2 2 0 0 Z " fill="#707276" transform="translate(46,41)"/>
<path d="M0 0 C1.76923828 0.04060547 1.76923828 0.04060547 3.57421875 0.08203125 C4.47785156 0.11683594 5.38148437 0.15164062 6.3125 0.1875 C5.9825 2.1675 5.6525 4.1475 5.3125 6.1875 C4.6525 6.1875 3.9925 6.1875 3.3125 6.1875 C2.9825 5.1975 2.6525 4.2075 2.3125 3.1875 C0.0025 3.1875 -2.3075 3.1875 -4.6875 3.1875 C-2.71561843 5.50736067 -0.75100674 6.6805891 1.9375 8 C3.79296875 9.00390625 3.79296875 9.00390625 5.3125 10.1875 C6.25 13.4375 6.25 13.4375 6.3125 16.1875 C3.28705666 18.20446222 2.70182618 18.44561096 -0.6875 18.375 C-1.368125 18.36855469 -2.04875 18.36210938 -2.75 18.35546875 C-4.6875 18.1875 -4.6875 18.1875 -7.6875 17.1875 C-8.0175 15.5375 -8.3475 13.8875 -8.6875 12.1875 C-7.3675 12.1875 -6.0475 12.1875 -4.6875 12.1875 C-4.3575 13.1775 -4.0275 14.1675 -3.6875 15.1875 C-2.0375 15.5175 -0.3875 15.8475 1.3125 16.1875 C1.5238453 13.7962705 1.5238453 13.7962705 0.3125 11.1875 C-1.95839674 9.98013263 -4.22467289 9.11223653 -6.65625 8.27734375 C-8.6875 7.1875 -8.6875 7.1875 -9.65625 5.25390625 C-9.6875 3.1875 -9.6875 3.1875 -8.66796875 1.44921875 C-5.76084251 -0.40285576 -3.40776688 -0.1012208 0 0 Z " fill="#EAE9E9" transform="translate(94.6875,29.8125)"/>
<path d="M0 0 C1.32 0 2.64 0 4 0 C4 2.97 4 5.94 4 9 C5.65 9 7.3 9 9 9 C9 6.03 9 3.06 9 0 C10.65 0 12.3 0 14 0 C14.08117951 2.41734542 14.14056926 4.83194949 14.1875 7.25 C14.22520508 8.27287109 14.22520508 8.27287109 14.26367188 9.31640625 C14.31137459 12.59199289 14.21085076 14.65348556 12.48828125 17.484375 C11.99714844 17.98453125 11.50601563 18.4846875 11 19 C8.69 18.67 6.38 18.34 4 18 C3.67 17.01 3.34 16.02 3 15 C5.31 15.33 7.62 15.66 10 16 C10.33 14.02 10.66 12.04 11 10 C10.34 10.66 9.68 11.32 9 12 C6 12.3125 6 12.3125 3 12 C0.97649676 8.96474514 0.67875982 7.80573798 0.375 4.3125 C0.30023438 3.50425781 0.22546875 2.69601563 0.1484375 1.86328125 C0.09945312 1.24839844 0.05046875 0.63351563 0 0 Z " fill="#D4D2D2" transform="translate(102,35)"/>
<path d="M0 0 C1.98 0 3.96 0 6 0 C6 3 6 3 4.49609375 4.578125 C3.81675781 5.12984375 3.13742188 5.6815625 2.4375 6.25 C-1.12707024 9.21941997 -4.36955252 12.3445265 -7.5546875 15.71484375 C-9 17 -9 17 -11 17 C-11.33 17.66 -11.66 18.32 -12 19 C-13.65391846 19.39171753 -15.32345271 19.72057545 -17 20 C-17.99 20.33 -18.98 20.66 -20 21 C-20 20.34 -20 19.68 -20 19 C-18.42578125 17.44921875 -18.42578125 17.44921875 -16.3125 15.6875 C-13.80197706 13.56355316 -11.39176579 11.44498656 -9.125 9.0625 C-7 7 -7 7 -5 7 C-4.34 5.68 -3.68 4.36 -3 3 C-2.34 3 -1.68 3 -1 3 C-0.67 2.01 -0.34 1.02 0 0 Z " fill="#9C9EA2" transform="translate(66,8)"/>
<path d="M0 0 C5.68464692 1.37809622 8.48086822 5.67122742 12 10 C12.97844709 11.16727022 13.95751917 12.33401714 14.9375 13.5 C15.618125 14.325 16.29875 15.15 17 16 C13.86333749 16.52277708 11.12622461 16.64363448 8 16 C4.8799189 13.70014641 2.49291822 10.94976522 0 8 C-0.98987134 6.98997291 -1.98610242 5.98590654 -3 5 C-1.125 1.125 -1.125 1.125 0 0 Z " fill="#898D91" transform="translate(31,49)"/>
<path d="M0 0 C1.9375 0.8125 1.9375 0.8125 4 2 C4.33 2.99 4.66 3.98 5 5 C6.31603403 5.70019759 7.65244192 6.36257594 9 7 C10.921875 8.62109375 10.921875 8.62109375 12.75 10.4375 C13.67039062 11.33275391 13.67039062 11.33275391 14.609375 12.24609375 C16 14 16 14 16 17 C14.02 17.99 14.02 17.99 12 19 C9.97303538 17.35912388 7.98296587 15.69266682 6 14 C5.14148438 13.31357422 5.14148438 13.31357422 4.265625 12.61328125 C0.18527533 9.06726308 0.18527533 9.06726308 -0.375 5.83984375 C-0.375 3.625 -0.375 3.625 0 0 Z " fill="#94969B" transform="translate(16,20)"/>
<path d="M0 0 C2 2 2 2 2.25 4.9375 C2 8 2 8 0 11 C-1.875 11.3984375 -1.875 11.3984375 -4 11.375 C-4.70125 11.38273437 -5.4025 11.39046875 -6.125 11.3984375 C-8 11 -8 11 -10 8 C-10.375 5 -10.375 5 -10 2 C-6.94783427 -1.63912068 -4.35383535 -1.23043173 0 0 Z " fill="#DDDCDC" transform="translate(186,37)"/>
<path d="M0 0 C0.66 0.33 1.32 0.66 2 1 C1.01 1.66 0.02 2.32 -1 3 C-0.67 2.01 -0.34 1.02 0 0 Z M-4 4 C-3.34 4.33 -2.68 4.66 -2 5 C-3.28015991 6.23302856 -3.28015991 6.23302856 -4.58618164 7.4909668 C-7.74515521 10.54143343 -10.884305 13.6116399 -14.01782227 16.68823242 C-15.37739227 18.01760779 -16.74229554 19.34155123 -18.11254883 20.65991211 C-20.08016989 22.55484308 -22.02784788 24.46841656 -23.97265625 26.38671875 C-24.59028336 26.97337814 -25.20791046 27.56003754 -25.84425354 28.16447449 C-29.18421141 31.38715132 -29.18421141 31.38715132 -30.00561523 35.76879883 C-28.78779314 38.47083235 -27.22200281 40.06470723 -25 42 C-25.33 42.66 -25.66 43.32 -26 44 C-30.00045422 41.11078307 -32.34928232 38.13466647 -35 34 C-32.04974274 30.99196428 -29.08850331 27.9949821 -26.125 25 C-24.86236328 23.71222656 -24.86236328 23.71222656 -23.57421875 22.3984375 C-22.76855469 21.58632813 -21.96289062 20.77421875 -21.1328125 19.9375 C-20.38918457 19.18339844 -19.64555664 18.42929687 -18.87939453 17.65234375 C-17 16 -17 16 -15 16 C-15 15.34 -15 14.68 -15 14 C-13.35546875 12.37890625 -13.35546875 12.37890625 -11.1875 10.5625 C-8.68897282 8.45536324 -6.2757944 6.34758602 -4 4 Z " fill="#362A2D" transform="translate(70,11)"/>
<path d="M0 0 C1.9375 1 1.9375 1 4 3 C4.8727518 6.1316388 5.34300332 7.88340084 5 11 C2.06000858 15.63271375 -1.34881158 18.18765352 -6 21 C-7.32 19.68 -8.64 18.36 -10 17 C-8.35 17 -6.7 17 -5 17 C-4.73445313 16.30132813 -4.46890625 15.60265625 -4.1953125 14.8828125 C-3.66550781 13.51769531 -3.66550781 13.51769531 -3.125 12.125 C-2.77695312 11.22007813 -2.42890625 10.31515625 -2.0703125 9.3828125 C-1 7 -1 7 1 5 C0.67958603 2.39719432 0.67958603 2.39719432 0 0 Z M-2 4 C-1.01 4.495 -1.01 4.495 0 5 C-0.99 5.495 -0.99 5.495 -2 6 C-2 5.34 -2 4.68 -2 4 Z " fill="#AAADB1" transform="translate(37,7)"/>
<path d="M0 0 C3.3 0.33 6.6 0.66 10 1 C10.33 3.64 10.66 6.28 11 9 C13.37948772 8.82374165 14.70225849 8.30280227 16.37890625 6.59765625 C17.62115486 5.09350908 18.81376056 3.54870149 20 2 C20.99 2.99 21.98 3.98 23 5 C21.04761147 7.00612399 19.08862178 9.00492433 17.125 11 C16.56941406 11.57234375 16.01382812 12.1446875 15.44140625 12.734375 C13.99865596 14.19450782 12.5025626 15.60149298 11 17 C10.34 17 9.68 17 9 17 C9 12.05 9 7.1 9 2 C6.03 2 3.06 2 0 2 C0 1.34 0 0.68 0 0 Z " fill="#39566B" transform="translate(6,41)"/>
<path d="M0 0 C4.34482759 1.34482759 4.34482759 1.34482759 6 3 C6.14115161 5.67058851 6.04247107 8.32432238 6 11 C4.68 11 3.36 11 2 11 C2 8.69 2 6.38 2 4 C0.68 4 -0.64 4 -2 4 C-2.33 6.31 -2.66 8.62 -3 11 C-4.32 11 -5.64 11 -7 11 C-7 7.7 -7 4.4 -7 1 C-5.68 1.33 -4.36 1.66 -3 2 C-2.01 1.34 -1.02 0.68 0 0 Z " fill="#CAC8C8" transform="translate(125,35)"/>
<path d="M0 0 C0.66 0 1.32 0 2 0 C2.02710123 2.5625718 2.04688771 5.12485365 2.0625 7.6875 C2.07087891 8.40873047 2.07925781 9.12996094 2.08789062 9.87304688 C2.13321297 19.79864003 2.13321297 19.79864003 -0.54272461 22.63549805 C-1.02362549 23.08578369 -1.50452637 23.53606934 -2 24 C-2.05787784 20.37506666 -2.0935542 16.75025143 -2.125 13.125 C-2.14175781 12.09246094 -2.15851563 11.05992188 -2.17578125 9.99609375 C-2.18222656 9.00996094 -2.18867187 8.02382813 -2.1953125 7.0078125 C-2.20578613 6.09660645 -2.21625977 5.18540039 -2.22705078 4.24658203 C-2 2 -2 2 0 0 Z " fill="#85888C" transform="translate(69,18)"/>
<path d="M0 0 C3.4375 1.3125 3.4375 1.3125 7 3 C7.33 3.99 7.66 4.98 8 6 C6.68 6 5.36 6 4 6 C4 5.01 4 4.02 4 3 C2.68 3.33 1.36 3.66 0 4 C0 6.31 0 8.62 0 11 C1.32 11.33 2.64 11.66 4 12 C4.33 11.01 4.66 10.02 5 9 C5.66 9 6.32 9 7 9 C5.125 12.875 5.125 12.875 4 14 C1.6875 14.375 1.6875 14.375 -1 14 C-3.375 11.8125 -3.375 11.8125 -5 9 C-5 5.50416141 -4.26901643 4.30162448 -1.9375 1.6875 C-1.298125 1.130625 -0.65875 0.57375 0 0 Z " fill="#DFDEDE" transform="translate(138,33)"/>
<path d="M0 0 C2.4375 0.625 2.4375 0.625 5 2 C5.8125 5.125 5.8125 5.125 6 8 C2.97455666 10.01696222 2.38932618 10.25811096 -1 10.1875 C-1.680625 10.18105469 -2.36125 10.17460938 -3.0625 10.16796875 C-5 10 -5 10 -8 9 C-8.33 7.35 -8.66 5.7 -9 4 C-7.68 4 -6.36 4 -5 4 C-4.67 4.99 -4.34 5.98 -4 7 C-2.35 7.33 -0.7 7.66 1 8 C0.67 5.36 0.34 2.72 0 0 Z " fill="#EBEAEA" transform="translate(95,38)"/>
<path d="M0 0 C0.556875 0.268125 1.11375 0.53625 1.6875 0.8125 C1.9375 7.4375 1.9375 7.4375 -0.3125 10.8125 C-0.3125 10.1525 -0.3125 9.4925 -0.3125 8.8125 C-3.2825 8.8125 -6.2525 8.8125 -9.3125 8.8125 C-4.7150974 -0.38230519 -4.7150974 -0.38230519 0 0 Z " fill="#56849E" transform="translate(16.3125,33.1875)"/>
<path d="M0 0 C2.64 0.33 5.28 0.66 8 1 C7.34 1.66 6.68 2.32 6 3 C5.83312552 5.58354218 5.83312552 5.58354218 6 8 C7.32 8.66 8.64 9.32 10 10 C8.35 10.33 6.7 10.66 5 11 C5.33 13.31 5.66 15.62 6 18 C4.35 18.33 2.7 18.66 1 19 C1.01160156 17.79601562 1.02320313 16.59203125 1.03515625 15.3515625 C1.04453434 13.77604321 1.05363452 12.20052225 1.0625 10.625 C1.07087891 9.8309375 1.07925781 9.036875 1.08789062 8.21875 C1.23040151 3.97607778 1.23040151 3.97607778 0 0 Z " fill="#F4F4F4" transform="translate(146,30)"/>
<path d="M0 0 C0.99 0.33 1.98 0.66 3 1 C2.01 1.66 1.02 2.32 0 3 C-1.11694579 5.55241223 -1.96364239 8.14137984 -2.83984375 10.78515625 C-4 13 -4 13 -6.00390625 13.87109375 C-8 14 -8 14 -10 13 C-9.5011165 7.17969246 -6.04015183 4.80013397 -1.875 1.125 C-1.25625 0.75375 -0.6375 0.3825 0 0 Z " fill="#C8CBCF" transform="translate(37,11)"/>
<path d="M0 0 C0.33 0.66 0.66 1.32 1 2 C3.97851562 1.90234375 3.97851562 1.90234375 6.95703125 1.8046875 C9 2 9 2 12 4 C12.1875 7.125 12.1875 7.125 12 10 C10.68 10 9.36 10 8 10 C8 9.01 8 8.02 8 7 C7.01 7.33 6.02 7.66 5 8 C4.67 7.01 4.34 6.02 4 5 C4.33 4.34 4.66 3.68 5 3 C3.35 3.33 1.7 3.66 0 4 C0 2.68 0 1.36 0 0 Z " fill="#C6C5C5" transform="translate(162,32)"/>
<path d="M0 0 C4.67692308 1.47692308 4.67692308 1.47692308 6.3125 4.125 C6.539375 4.74375 6.76625 5.3625 7 6 C6.34 6 5.68 6 5 6 C4.34 7.32 3.68 8.64 3 10 C-1.70689655 7.5862069 -1.70689655 7.5862069 -3 5 C-3 3 -3 3 -1.5625 1.25 C-1.046875 0.8375 -0.53125 0.425 0 0 Z " fill="#9C9EA4" transform="translate(31,49)"/>
<path d="M0 0 C0.66 0.33 1.32 0.66 2 1 C1.34 1.66 0.68 2.32 0 3 C0.020625 3.763125 0.04125 4.52625 0.0625 5.3125 C-0.01473439 8.63357886 -1.14774665 10.2987972 -3 13 C-4.65 11.35 -6.3 9.7 -8 8 C-5.36 5.36 -2.72 2.72 0 0 Z " fill="#8E9195" transform="translate(58,29)"/>
<path d="M0 0 C2.5 1.75 2.5 1.75 5 4 C5 5.32 5 6.64 5 8 C0.77777778 12 0.77777778 12 -2 12 C-1.34 8.04 -0.68 4.08 0 0 Z " fill="#4A7996" transform="translate(18,35)"/>
<path d="M0 0 C0.33 4.62 0.66 9.24 1 14 C-0.32 14 -1.64 14 -3 14 C-3.07347656 12.84371094 -3.07347656 12.84371094 -3.1484375 11.6640625 C-3.22320312 10.66117188 -3.29796875 9.65828125 -3.375 8.625 C-3.44460937 7.62726562 -3.51421875 6.62953125 -3.5859375 5.6015625 C-3.76363964 2.84491121 -3.76363964 2.84491121 -6 1 C-3.92446352 0.4465236 -2.15634036 0 0 0 Z " fill="#CCCBCB" transform="translate(167,35)"/>
<path d="M0 0 C2.86319855 1.04983947 3.8499428 1.73398952 5.375 4.4375 C5.684375 5.7059375 5.684375 5.7059375 6 7 C5.01 8.485 5.01 8.485 4 10 C2.68 9.34 1.36 8.68 0 8 C0 5.36 0 2.72 0 0 Z " fill="#C7C8CC" transform="translate(16,20)"/>
<path d="M0 0 C4.875 0.875 4.875 0.875 6 2 C6.04063832 3.66617115 6.042721 5.33388095 6 7 C4.35 7 2.7 7 1 7 C0.67 5.68 0.34 4.36 0 3 C-1.32 2.67 -2.64 2.34 -4 2 C-2.68 2 -1.36 2 0 2 C0 1.34 0 0.68 0 0 Z " fill="#3F2929" transform="translate(90,39)"/>
<path d="M0 0 C4.55555556 1.55555556 4.55555556 1.55555556 6 3 C6.14115161 5.67058851 6.04247107 8.32432238 6 11 C4.68 11 3.36 11 2 11 C2.0825 9.906875 2.165 8.81375 2.25 7.6875 C2.41103961 3.96557142 2.41103961 3.96557142 0 2.0625 C-0.66 1.711875 -1.32 1.36125 -2 1 C-1.34 0.67 -0.68 0.34 0 0 Z " fill="#D8D7D7" transform="translate(125,35)"/>
<path d="M0 0 C1.8871875 0.061875 1.8871875 0.061875 3.8125 0.125 C2.8225 0.62 2.8225 0.62 1.8125 1.125 C1.503125 1.929375 1.19375 2.73375 0.875 3.5625 C-0.1875 6.125 -0.1875 6.125 -3.1875 8.125 C-3.47625 7.50625 -3.765 6.8875 -4.0625 6.25 C-5.12470042 3.99174235 -5.12470042 3.99174235 -7.1875 2.125 C-4.09861478 0.06574319 -3.47814073 -0.1140374 0 0 Z " fill="#361F1F" transform="translate(134.1875,32.875)"/>
<path d="M0 0 C0.33 0 0.66 0 1 0 C0.67 2.31 0.34 4.62 0 7 C-3.32534757 8.10844919 -5.62182575 7.84454356 -9 7 C-9 6.34 -9 5.68 -9 5 C-8.43410156 4.72285156 -7.86820312 4.44570313 -7.28515625 4.16015625 C-6.55167969 3.79792969 -5.81820312 3.43570313 -5.0625 3.0625 C-3.96615234 2.52302734 -3.96615234 2.52302734 -2.84765625 1.97265625 C-1.03750973 1.13628173 -1.03750973 1.13628173 0 0 Z " fill="#402C2C" transform="translate(113,44)"/>
<path d="M0 0 C1.32 0 2.64 0 4 0 C4.125 5.75 4.125 5.75 3 8 C2.01 8 1.02 8 0 8 C-0.38063221 5.6739143 -0.71269945 3.33944736 -1 1 C-0.67 0.67 -0.34 0.34 0 0 Z " fill="#2F1616" transform="translate(180,39)"/>
<path d="M0 0 C0.66 0 1.32 0 2 0 C2.28571429 8.57142857 2.28571429 8.57142857 0 12 C0 11.01 0 10.02 0 9 C-0.66 9 -1.32 9 -2 9 C-2.125 5.625 -2.125 5.625 -2 2 C-1.34 1.34 -0.68 0.68 0 0 Z " fill="#9B9EA2" transform="translate(69,18)"/>
<path d="M0 0 C1.9375 0.8125 1.9375 0.8125 4 2 C4.33 2.99 4.66 3.98 5 5 C4.01 5 3.02 5 2 5 C2 5.66 2 6.32 2 7 C0.68 7 -0.64 7 -2 7 C-2.125 4.625 -2.125 4.625 -2 2 C-1.34 1.34 -0.68 0.68 0 0 Z " fill="#818487" transform="translate(46,41)"/>
<path d="M0 0 C5.28 0 10.56 0 16 0 C14.68 1.32 13.36 2.64 12 4 C11.67 3.34 11.34 2.68 11 2 C10.01 2 9.02 2 8 2 C7.67 2.66 7.34 3.32 7 4 C6.67 3.01 6.34 2.02 6 1 C4.35 1 2.7 1 1 1 C0.67 1.99 0.34 2.98 0 4 C0 2.68 0 1.36 0 0 Z " fill="#331F1F" transform="translate(110,34)"/>
<path d="M0 0 C1.67542976 0.28604898 3.34385343 0.61781233 5 1 C4.67 2.65 4.34 4.3 4 6 C2.35 6 0.7 6 -1 6 C-1.042721 4.33388095 -1.04063832 2.66617115 -1 1 C-0.67 0.67 -0.34 0.34 0 0 Z " fill="#331C1C" transform="translate(152,32)"/>
<path d="M0 0 C2 1.375 2 1.375 4 3 C4 3.66 4 4.32 4 5 C3.34 5 2.68 5 2 5 C2.33 6.32 2.66 7.64 3 9 C1.125 8.6875 1.125 8.6875 -1 8 C-1.66 7.01 -2.32 6.02 -3 5 C-2.01 3.35 -1.02 1.7 0 0 Z " fill="#A6A8AA" transform="translate(22,25)"/>
<path d="M0 0 C2.6875 0.3125 2.6875 0.3125 5 1 C4.25 2.9375 4.25 2.9375 3 5 C0.875 5.75 0.875 5.75 -1 6 C-1.66 5.01 -2.32 4.02 -3 3 C-1.8125 1.4375 -1.8125 1.4375 0 0 Z " fill="#5D6063" transform="translate(58,55)"/>
<path d="M0 0 C0.33 0 0.66 0 1 0 C1.13277344 0.74765625 1.26554688 1.4953125 1.40234375 2.265625 C1.57894531 3.25046875 1.75554687 4.2353125 1.9375 5.25 C2.19853516 6.71179687 2.19853516 6.71179687 2.46484375 8.203125 C2.90379729 10.49721795 3.40348592 12.74291971 4 15 C2.35 15.33 0.7 15.66 -1 16 C-0.67 10.72 -0.34 5.44 0 0 Z " fill="#D8D6D6" transform="translate(148,33)"/>
<path d="M0 0 C4.29 0 8.58 0 13 0 C12.67 1.98 12.34 3.96 12 6 C11.34 6 10.68 6 10 6 C9.67 5.01 9.34 4.02 9 3 C6.89415562 2.19436362 6.89415562 2.19436362 4.4375 1.8125 C3.61121094 1.65394531 2.78492187 1.49539062 1.93359375 1.33203125 C1.29550781 1.22246094 0.65742187 1.11289062 0 1 C0 0.67 0 0.34 0 0 Z " fill="#D8D8D8" transform="translate(88,30)"/>
<path d="M0 0 C0.33 0.99 0.66 1.98 1 3 C-1.97 5.97 -4.94 8.94 -8 12 C-8.33 11.01 -8.66 10.02 -9 9 C-7.37660195 7.29115995 -5.70680947 5.62553283 -4 4 C-3.34 4 -2.68 4 -2 4 C-1.34 2.68 -0.68 1.36 0 0 Z " fill="#A3A5A8" transform="translate(63,11)"/>
<path d="M0 0 C0.66 0 1.32 0 2 0 C2.33 0.99 2.66 1.98 3 3 C2.01 3.33 1.02 3.66 0 4 C-0.33 4.66 -0.66 5.32 -1 6 C-1.33 6.66 -1.66 7.32 -2 8 C-2.99 8.33 -3.98 8.66 -5 9 C-3.50079488 5.88626628 -1.91847864 2.87771795 0 0 Z M-7 9 C-6.01 9.495 -6.01 9.495 -5 10 C-5.66 10.66 -6.32 11.32 -7 12 C-7 11.01 -7 10.02 -7 9 Z " fill="#D7D9DD" transform="translate(35,7)"/>
<path d="M0 0 C0.309375 0.804375 0.309375 0.804375 0.625 1.625 C2.57996944 5.0017654 5.18223695 7.30474839 8 10 C7.67 10.66 7.34 11.32 7 12 C3.01930733 9.12505529 0.56428003 6.17882671 -2 2 C-1.34 1.34 -0.68 0.68 0 0 Z " fill="#3B5264" transform="translate(37,43)"/>
<path d="M0 0 C0.99 1.32 1.98 2.64 3 4 C2.34 4 1.68 4 1 4 C0.34 5.32 -0.32 6.64 -1 8 C-1.66 7.67 -2.32 7.34 -3 7 C-2.25 2.25 -2.25 2.25 0 0 Z " fill="#939699" transform="translate(35,51)"/>
<path d="M0 0 C1.65 1.65 3.3 3.3 5 5 C2.03 5 -0.94 5 -4 5 C-3.34 4.67 -2.68 4.34 -2 4 C-2 3.34 -2 2.68 -2 2 C-1.34 2 -0.68 2 0 2 C0 1.34 0 0.68 0 0 Z " fill="#6F7376" transform="translate(43,60)"/>
<path d="M0 0 C0.33 0 0.66 0 1 0 C1.33 2.97 1.66 5.94 2 9 C1.01 8.67 0.02 8.34 -1 8 C-1.625 5.125 -1.625 5.125 -2 2 C-1.34 1.34 -0.68 0.68 0 0 Z " fill="#E1DFDF" transform="translate(178,39)"/>
<path d="M0 0 C3.4375 1.3125 3.4375 1.3125 7 3 C7.33 3.99 7.66 4.98 8 6 C6.68 6 5.36 6 4 6 C4 5.01 4 4.02 4 3 C1.03 2.505 1.03 2.505 -2 2 C-1.34 1.34 -0.68 0.68 0 0 Z " fill="#CECDCD" transform="translate(138,33)"/>
<path d="M0 0 C3.3 0.33 6.6 0.66 10 1 C9.01 2.485 9.01 2.485 8 4 C5.69 3.67 3.38 3.34 1 3 C0.67 2.01 0.34 1.02 0 0 Z " fill="#E1E0E0" transform="translate(105,50)"/>
<path d="M0 0 C0.928125 0.20625 1.85625 0.4125 2.8125 0.625 C-0.13933101 3.57683101 -3.14261947 3.71163988 -7.1875 4.625 C-5.78075725 0.40477175 -4.42930454 -0.52109465 0 0 Z " fill="#C2C0C0" transform="translate(183.1875,36.375)"/>
<path d="M0 0 C2.0625 0.4375 2.0625 0.4375 4 1 C4 1.99 4 2.98 4 4 C3.34 4 2.68 4 2 4 C2 4.66 2 5.32 2 6 C1.01 6 0.02 6 -1 6 C-1.042721 4.33388095 -1.04063832 2.66617115 -1 1 C-0.67 0.67 -0.34 0.34 0 0 Z " fill="#7F8386" transform="translate(39,58)"/>
<path d="M0 0 C1.98 0 3.96 0 6 0 C5.2884375 0.5878125 5.2884375 0.5878125 4.5625 1.1875 C2.64820367 3.40808374 2.38733012 5.13375709 2 8 C-0.1519437 4.77208445 -0.20086443 3.71599191 0 0 Z " fill="#3C2929" transform="translate(174,36)"/>
<path d="M0 0 C1.2065625 0.0309375 1.2065625 0.0309375 2.4375 0.0625 C2.4375 1.7125 2.4375 3.3625 2.4375 5.0625 C1.4475 5.0625 0.4575 5.0625 -0.5625 5.0625 C-2.25 3.0625 -2.25 3.0625 -3.5625 1.0625 C-2.5625 0.0625 -2.5625 0.0625 0 0 Z " fill="#85898B" transform="translate(53.5625,35.9375)"/>
<path d="M0 0 C0.33 0.66 0.66 1.32 1 2 C3.64 2 6.28 2 9 2 C8.01 3.32 7.02 4.64 6 6 C5.34 5.67 4.68 5.34 4 5 C4.33 4.34 4.66 3.68 5 3 C3.35 3.33 1.7 3.66 0 4 C0 2.68 0 1.36 0 0 Z " fill="#2E1A1A" transform="translate(162,32)"/>
<path d="M0 0 C1.32 0 2.64 0 4 0 C4 2.31 4 4.62 4 7 C1 5 1 5 0.3125 2.375 C0.209375 1.59125 0.10625 0.8075 0 0 Z " fill="#C2C0C0" transform="translate(102,35)"/>
<path d="M0 0 C0.6875 1.8125 0.6875 1.8125 1 4 C-0.3125 5.75 -0.3125 5.75 -2 7 C-2.66 7 -3.32 7 -4 7 C-2.79618552 4.50638429 -1.54571278 2.31856917 0 0 Z " fill="#BCC0C4" transform="translate(33,18)"/>
</svg>
